# xmcd
#
# Track frame offsets:
#	150
#	15701
#	28973
#	50301
#	65961
#	81864
#	96092
#	107217
#	123685
#	137805
#	149361
#	162320
#	174174
#	188267
#	200066
#	213268
#	226497
#	238472
#	250616
#	265034
#
# Disc length: 3713 seconds
#
# Revision: 1
# Processed by: cddbd v1.5PL3 Copyright (c) Steve Scherf et al.
# Submitted via: EasyCDDAExtractor 6.2.0.3
#
DISCID=240e7f14
DTITLE=Di Paullo and Paulino - As 20 Mais
DYEAR=2004
DGENRE=Sertanejo
TTITLE0=Tô Indo Embora
TTITLE1=Tô Por Aí
TTITLE2=Eu Achei Bão
TTITLE3=Saudade Boa De Briga
TTITLE4=Amor De Primavera
TTITLE5=Onde Anda Você
TTITLE6=Não Desista
TTITLE7=Lambada Do Amor
TTITLE8=Sonhei Com Você
TTITLE9=Cai Sereno
TTITLE10=Quatro Tipos De Mulher
TTITLE11=Fruto Proibido
TTITLE12=Foi Bom Te Encontrar
TTITLE13=Coração De Cowboy
TTITLE14=El Condor Passa (No Céu Dos Braços Seus)
TTITLE15=Never On Sunday
TTITLE16=Caso Passado
TTITLE17=No Alto Da Colina
TTITLE18=Presente De Natal
TTITLE19=Louca Paixão
EXTD=
EXTT0=
EXTT1=
EXTT2=
EXTT3=
EXTT4=
EXTT5=
EXTT6=
EXTT7=
EXTT8=
EXTT9=
EXTT10=
EXTT11=
EXTT12=
EXTT13=
EXTT14=
EXTT15=
EXTT16=
EXTT17=
EXTT18=
EXTT19=
PLAYORDER=
